<svg width="20" height="20" viewBox="0 0 20 20" fill="none" xmlns="http://www.w3.org/2000/svg">
<path d="M15.54 12.78L14.3 11.78C13.88 11.44 13.28 11.4198 12.84 11.74L11.66 12.6C11.5 12.72 11.2802 12.7 11.14 12.56L9.19999 10.8L7.41999 8.84C7.27999 8.7 7.26 8.48 7.38 8.32L8.23999 7.14C8.55999 6.7 8.53999 6.1 8.19999 5.68L7.19999 4.44C6.75999 3.88 5.92 3.84 5.42 4.34L4.34 5.42C4.1 5.66 3.98 6 3.98 6.32C4.12 8.86 5.28 11.28 6.98 12.98C8.67999 14.68 11.08 15.84 13.64 15.98C13.98 16 14.3 15.8598 14.54 15.6198L15.62 14.54C16.16 14.06 16.1 13.22 15.54 12.78Z" fill="#D78742"/>
</svg>
